<?xml version="1.0" encoding="UTF-8" standalone="no"?>
<!-- Created with Inkscape (http://www.inkscape.org/) -->

<svg
   xmlns:dc="http://purl.org/dc/elements/1.1/"
   xmlns:cc="http://creativecommons.org/ns#"
   xmlns:rdf="http://www.w3.org/1999/02/22-rdf-syntax-ns#"
   xmlns:svg="http://www.w3.org/2000/svg"
   xmlns="http://www.w3.org/2000/svg"
   xmlns:sodipodi="http://sodipodi.sourceforge.net/DTD/sodipodi-0.dtd"
   xmlns:inkscape="http://www.inkscape.org/namespaces/inkscape"
   width="2090.551"
   height="1169.2913"
   id="svg2"
   version="1.1"
   inkscape:version="0.47 r22583"
   sodipodi:docname="invader.pdf">
  <defs
     id="defs4">
    <inkscape:perspective
       sodipodi:type="inkscape:persp3d"
       inkscape:vp_x="0 : 526.18109 : 1"
       inkscape:vp_y="0 : 1000 : 0"
       inkscape:vp_z="744.09448 : 526.18109 : 1"
       inkscape:persp3d-origin="372.04724 : 350.78739 : 1"
       id="perspective10" />
    <inkscape:perspective
       id="perspective2828"
       inkscape:persp3d-origin="0.5 : 0.33333333 : 1"
       inkscape:vp_z="1 : 0.5 : 1"
       inkscape:vp_y="0 : 1000 : 0"
       inkscape:vp_x="0 : 0.5 : 1"
       sodipodi:type="inkscape:persp3d" />
  </defs>
  <sodipodi:namedview
     id="base"
     pagecolor="#ffffff"
     bordercolor="#666666"
     borderopacity="1.0"
     inkscape:pageopacity="0.0"
     inkscape:pageshadow="2"
     inkscape:zoom="0.35"
     inkscape:cx="928.56415"
     inkscape:cy="634.28571"
     inkscape:document-units="px"
     inkscape:current-layer="layer1"
     showgrid="true"
     units="mm"
     inkscape:window-width="1366"
     inkscape:window-height="716"
     inkscape:window-x="0"
     inkscape:window-y="0"
     inkscape:window-maximized="1">
    <inkscape:grid
       type="xygrid"
       id="grid2816"
       empspacing="5"
       visible="true"
       enabled="true"
       snapvisiblegridlinesonly="true"
       units="cm"
       spacingx="1.4cm"
       spacingy="1.4cm" />
  </sodipodi:namedview>
  <metadata
     id="metadata7">
    <rdf:RDF>
      <cc:Work
         rdf:about="">
        <dc:format>image/svg+xml</dc:format>
        <dc:type
           rdf:resource="http://purl.org/dc/dcmitype/StillImage" />
        <dc:title></dc:title>
      </cc:Work>
    </rdf:RDF>
  </metadata>
  <g
     inkscape:label="Layer 1"
     inkscape:groupmode="layer"
     id="layer1"
     transform="translate(0,116.92912)">
    <path
       id="path2845"
       style="fill:none;stroke:#000000;stroke-width:1px;stroke-linecap:butt;stroke-linejoin:miter;stroke-opacity:1"
       d="m 1190.5513,357.87395 0,99.2126 99.2126,0 0,-99.2126 -99.2126,0 z m -396.85051,0 0,99.2126 c 0,0 99.2126,0 99.2126,0 l 0,-99.2126 -99.2126,0 z m -198.42519,496.06299 0,-99.2126 99.2126,0 0,-99.21259 -99.2126,0 0,-99.2126 -99.21261,0 0,-396.8504 99.21261,0 0,198.4252 99.2126,0 0,-99.2126 99.21259,0 0,-99.2126 -99.21259,0 0,-99.212585 99.21259,0 0,99.212585 99.2126,0 0,99.2126 297.63791,0 0,-99.21259 99.2126,0 0,-99.212585 99.2126,0 0,99.212585 -99.2126,0 0,99.21259 99.2126,0 0,99.2126 99.2126,0 0,-198.42519 99.2126,0 0,396.85039 -99.2126,0 0,99.2126 -99.2126,0 0,99.21259 99.2126,0 0,99.2126 0,0 -99.2127,0 0,-99.2126 -99.2125,0 0,-99.21259 -496.06311,0 0,99.21259 -99.21259,0 0,99.2126 c 0,0 0,0 -99.2126,0 z" />
  </g>
</svg>
